<svg width="139" height="48" viewBox="0 0 139 48" fill="none" xmlns="http://www.w3.org/2000/svg">
<rect x="0.745878" y="1.5491" width="137.659" height="45.115" rx="7.4216" fill="white"/>
<rect x="0.745878" y="1.5491" width="137.659" height="45.115" rx="7.4216" stroke="#101828" stroke-width="1.15679"/>
<path d="M94.4759 23.1819V25.8322H92.8147V27.5702H94.4759V33.4756C94.4759 35.4921 95.3881 36.2987 97.6831 36.2987C98.0864 36.2987 98.4704 36.2506 98.8065 36.193V34.4742C98.5185 34.503 98.336 34.5222 98.0191 34.5222C96.9917 34.5222 96.5404 34.0421 96.5404 32.9475V27.5702H98.8065V25.8322H96.5404V23.1819H94.4759Z" fill="#101828"/>
<path d="M104.653 36.4427C107.706 36.4427 109.579 34.3974 109.579 31.0078C109.579 27.6374 107.697 25.5825 104.653 25.5825C101.599 25.5825 99.7172 27.6374 99.7172 31.0078C99.7172 34.3974 101.59 36.4427 104.653 36.4427ZM104.653 34.6087C102.857 34.6087 101.849 33.2931 101.849 31.0078C101.849 28.7416 102.857 27.4165 104.653 27.4165C106.439 27.4165 107.457 28.7416 107.457 31.0078C107.457 33.2835 106.439 34.6087 104.653 34.6087Z" fill="#101828"/>
<path d="M111.181 36.241H113.245V30.0668C113.245 28.5976 114.35 27.6086 115.915 27.6086C116.28 27.6086 116.894 27.6758 117.067 27.7334V25.6977C116.846 25.6401 116.452 25.6113 116.145 25.6113C114.782 25.6113 113.62 26.3603 113.322 27.3877H113.168V25.7841H111.181V36.241Z" fill="#101828"/>
<path d="M122.193 27.3397C123.72 27.3397 124.719 28.4056 124.767 30.0476H119.485C119.6 28.4152 120.666 27.3397 122.193 27.3397ZM124.757 33.418C124.373 34.2342 123.518 34.6855 122.27 34.6855C120.618 34.6855 119.552 33.5236 119.485 31.6896V31.5743H126.869V30.8542C126.869 27.5702 125.112 25.5825 122.203 25.5825C119.255 25.5825 117.382 27.7046 117.382 31.0462C117.382 34.3878 119.216 36.4427 122.212 36.4427C124.603 36.4427 126.274 35.2904 126.745 33.418H124.757Z" fill="#101828"/>
<path d="M80.9372 32.3795C81.0965 34.9472 83.2363 36.5894 86.4211 36.5894C89.8248 36.5894 91.9547 34.8676 91.9547 32.1207C91.9547 29.961 90.7405 28.7667 87.7945 28.08L86.2121 27.6918C84.341 27.2539 83.5846 26.6667 83.5846 25.6416C83.5846 24.3478 84.759 23.5018 86.5206 23.5018C88.1926 23.5018 89.3471 24.3279 89.5561 25.6516H91.7258C91.5964 23.2331 89.4665 21.5312 86.5505 21.5312C83.4154 21.5312 81.3254 23.2331 81.3254 25.7909C81.3254 27.9008 82.5097 29.1549 85.1073 29.762L86.9585 30.2098C88.8594 30.6577 89.6954 31.3146 89.6954 32.4093C89.6954 33.6833 88.3817 34.6088 86.5903 34.6088C84.6694 34.6088 83.3358 33.743 83.1467 32.3795H80.9372Z" fill="#101828"/>
<path d="M59.5512 25.6113C58.1301 25.6113 56.901 26.3219 56.2672 27.5126H56.1136V25.7841H54.1259V39.7171H56.1904V34.6567H56.3536C56.901 35.7609 58.0821 36.4139 59.5704 36.4139C62.211 36.4139 63.8914 34.3302 63.8914 31.0078C63.8914 27.6854 62.211 25.6113 59.5512 25.6113ZM58.9655 34.5606C57.237 34.5606 56.152 33.1971 56.152 31.0174C56.152 28.8281 57.237 27.4645 58.9751 27.4645C60.7227 27.4645 61.7693 28.7993 61.7693 31.0078C61.7693 33.2259 60.7227 34.5606 58.9655 34.5606Z" fill="#101828"/>
<path d="M71.1154 25.6113C69.6943 25.6113 68.4652 26.3219 67.8315 27.5126H67.6778V25.7841H65.6901V39.7171H67.7546V34.6567H67.9179C68.4652 35.7609 69.6463 36.4139 71.1346 36.4139C73.7753 36.4139 75.4557 34.3302 75.4557 31.0078C75.4557 27.6854 73.7753 25.6113 71.1154 25.6113ZM70.5297 34.5606C68.8013 34.5606 67.7162 33.1971 67.7162 31.0174C67.7162 28.8281 68.8013 27.4645 70.5393 27.4645C72.2869 27.4645 73.3336 28.7993 73.3336 31.0078C73.3336 33.2259 72.2869 34.5606 70.5297 34.5606Z" fill="#101828"/>
<path d="M50.4218 36.241H52.7905L47.6053 21.8796H45.2067L40.0215 36.241H42.3106L43.6342 32.4292H49.1081L50.4218 36.241ZM46.2916 24.4871H46.4608L48.5408 30.5582H44.2015L46.2916 24.4871Z" fill="#101828"/>
<path d="M41.4087 11.0474V17.9755H43.9101C45.9746 17.9755 47.1701 16.7032 47.1701 14.4898C47.1701 12.3101 45.965 11.0474 43.9101 11.0474H41.4087ZM42.4841 12.0269H43.7901C45.2256 12.0269 46.0754 12.9391 46.0754 14.5043C46.0754 16.0934 45.24 16.996 43.7901 16.996H42.4841V12.0269Z" fill="#101828"/>
<path d="M50.8314 18.0763C52.3582 18.0763 53.2944 17.0537 53.2944 15.3589C53.2944 13.6737 52.3534 12.6462 50.8314 12.6462C49.3047 12.6462 48.3636 13.6737 48.3636 15.3589C48.3636 17.0537 49.2999 18.0763 50.8314 18.0763ZM50.8314 17.1593C49.9336 17.1593 49.4295 16.5015 49.4295 15.3589C49.4295 14.2258 49.9336 13.5632 50.8314 13.5632C51.7244 13.5632 52.2334 14.2258 52.2334 15.3589C52.2334 16.4967 51.7244 17.1593 50.8314 17.1593Z" fill="#101828"/>
<path d="M61.2672 12.747H60.235L59.3035 16.7368H59.2219L58.1465 12.747H57.1574L56.082 16.7368H56.0051L55.0689 12.747H54.0223L55.4626 17.9755H56.5237L57.5991 14.125H57.6807L58.761 17.9755H59.8317L61.2672 12.747Z" fill="#101828"/>
<path d="M62.456 17.9755H63.4882V14.9172C63.4882 14.101 63.9731 13.592 64.7365 13.592C65.4999 13.592 65.8648 14.0097 65.8648 14.8499V17.9755H66.897V14.5907C66.897 13.3472 66.2537 12.6462 65.087 12.6462C64.2996 12.6462 63.7811 12.9967 63.5266 13.5776H63.4498V12.747H62.456V17.9755Z" fill="#101828"/>
<path d="M68.5227 17.9755H69.5549V10.7065H68.5227V17.9755Z" fill="#101828"/>
<path d="M73.4372 18.0763C74.9639 18.0763 75.9001 17.0537 75.9001 15.3589C75.9001 13.6737 74.9591 12.6462 73.4372 12.6462C71.9104 12.6462 70.9694 13.6737 70.9694 15.3589C70.9694 17.0537 71.9056 18.0763 73.4372 18.0763ZM73.4372 17.1593C72.5393 17.1593 72.0352 16.5015 72.0352 15.3589C72.0352 14.2258 72.5393 13.5632 73.4372 13.5632C74.3302 13.5632 74.8391 14.2258 74.8391 15.3589C74.8391 16.4967 74.3302 17.1593 73.4372 17.1593Z" fill="#101828"/>
<path d="M78.9758 17.1929C78.414 17.1929 78.0059 16.9192 78.0059 16.4487C78.0059 15.9878 78.3324 15.7429 79.0526 15.6949L80.3297 15.6133V16.0502C80.3297 16.6984 79.7535 17.1929 78.9758 17.1929ZM78.7117 18.0619C79.3983 18.0619 79.9696 17.7642 80.2817 17.2409H80.3633V17.9755H81.3571V14.4034C81.3571 13.2992 80.6177 12.6462 79.307 12.6462C78.1212 12.6462 77.2762 13.2223 77.1705 14.1202H78.1692C78.2844 13.7505 78.6829 13.5392 79.259 13.5392C79.9648 13.5392 80.3297 13.8513 80.3297 14.4034V14.8547L78.9133 14.9364C77.6698 15.0132 76.9689 15.5557 76.9689 16.4967C76.9689 17.4522 77.7035 18.0619 78.7117 18.0619Z" fill="#101828"/>
<path d="M84.86 18.0619C85.5802 18.0619 86.19 17.721 86.502 17.1497H86.5837V17.9755H87.5727V10.7065H86.5404V13.5776H86.4636C86.1804 13.0015 85.5754 12.6606 84.86 12.6606C83.5397 12.6606 82.6899 13.7073 82.6899 15.3589C82.6899 17.0153 83.5301 18.0619 84.86 18.0619ZM85.1529 13.5872C86.0171 13.5872 86.5597 14.2738 86.5597 15.3637C86.5597 16.4583 86.0219 17.1353 85.1529 17.1353C84.2791 17.1353 83.7558 16.4679 83.7558 15.3589C83.7558 14.2594 84.2839 13.5872 85.1529 13.5872Z" fill="#101828"/>
<path d="M94.2665 18.0763C95.7932 18.0763 96.7294 17.0537 96.7294 15.3589C96.7294 13.6737 95.7884 12.6462 94.2665 12.6462C92.7397 12.6462 91.7987 13.6737 91.7987 15.3589C91.7987 17.0537 92.7349 18.0763 94.2665 18.0763ZM94.2665 17.1593C93.3686 17.1593 92.8645 16.5015 92.8645 15.3589C92.8645 14.2258 93.3686 13.5632 94.2665 13.5632C95.1595 13.5632 95.6684 14.2258 95.6684 15.3589C95.6684 16.4967 95.1595 17.1593 94.2665 17.1593Z" fill="#101828"/>
<path d="M98.0959 17.9755H99.1281V14.9172C99.1281 14.101 99.613 13.592 100.376 13.592C101.14 13.592 101.505 14.0097 101.505 14.8499V17.9755H102.537V14.5907C102.537 13.3472 101.894 12.6462 100.727 12.6462C99.9395 12.6462 99.421 12.9967 99.1665 13.5776H99.0897V12.747H98.0959V17.9755Z" fill="#101828"/>
<path d="M107.291 11.4459V12.771H106.46V13.64H107.291V16.5928C107.291 17.601 107.747 18.0043 108.895 18.0043C109.096 18.0043 109.288 17.9803 109.456 17.9515V17.0921C109.312 17.1065 109.221 17.1161 109.063 17.1161C108.549 17.1161 108.323 16.876 108.323 16.3287V13.64H109.456V12.771H108.323V11.4459H107.291Z" fill="#101828"/>
<path d="M110.842 17.9755H111.874V14.922C111.874 14.1298 112.345 13.5968 113.19 13.5968C113.919 13.5968 114.308 14.0193 114.308 14.8547V17.9755H115.341V14.6003C115.341 13.3568 114.654 12.651 113.54 12.651C112.753 12.651 112.201 13.0015 111.946 13.5872H111.865V10.7065H110.842V17.9755Z" fill="#101828"/>
<path d="M119.064 13.5248C119.828 13.5248 120.327 14.0577 120.351 14.8787H117.71C117.768 14.0625 118.301 13.5248 119.064 13.5248ZM120.346 16.5639C120.154 16.972 119.727 17.1977 119.103 17.1977C118.277 17.1977 117.744 16.6168 117.71 15.6997V15.6421H121.403V15.282C121.403 13.64 120.524 12.6462 119.069 12.6462C117.595 12.6462 116.659 13.7073 116.659 15.3781C116.659 17.0489 117.576 18.0763 119.074 18.0763C120.269 18.0763 121.105 17.5002 121.34 16.5639H120.346Z" fill="#101828"/>
<path d="M28.8201 24.4547C28.8451 22.5101 29.8895 20.6701 31.5461 19.6516C30.501 18.159 28.7505 17.2126 26.9292 17.1556C24.9867 16.9517 23.1035 18.318 22.1136 18.318C21.1045 18.318 19.5805 17.1759 17.9393 17.2096C15.8001 17.2787 13.8058 18.495 12.765 20.3652C10.5278 24.2386 12.1966 29.9313 14.3397 33.0623C15.4119 34.5954 16.665 36.308 18.3047 36.2473C19.9093 36.1807 20.5085 35.2241 22.4454 35.2241C24.3642 35.2241 24.9264 36.2473 26.5994 36.2087C28.3211 36.1807 29.4059 34.6687 30.4405 33.121C31.2109 32.0286 31.8038 30.8212 32.197 29.5436C30.1737 28.6878 28.8224 26.6516 28.8201 24.4547Z" fill="#101828"/>
<path d="M25.6601 15.0965C26.5989 13.9696 27.0614 12.5211 26.9494 11.0586C25.5152 11.2092 24.1903 11.8947 23.2389 12.9784C22.3085 14.0373 21.8243 15.4603 21.9158 16.8669C23.3506 16.8816 24.7611 16.2147 25.6601 15.0965Z" fill="#101828"/>
</svg>
