<svg width="162" height="45" viewBox="0 0 162 45" fill="none" xmlns="http://www.w3.org/2000/svg">
<rect x="0.782715" y="0.905273" width="160.7" height="43" rx="6.75" fill="white"/>
<rect x="0.782715" y="0.905273" width="160.7" height="43" rx="6.75" stroke="black"/>
<path d="M71.5094 22.8439H73.7314V34.9327H71.5094V22.8439Z" fill="black"/>
<path d="M47.0327 28.9721C47.0327 25.5745 49.5973 22.8462 53.1256 22.8462C55.5925 22.8462 57.5365 24.1041 58.5492 25.9009L56.5889 27.0773C55.8539 25.7214 54.7106 25.0025 53.1421 25.0025C50.9205 25.0025 49.2378 26.7994 49.2378 28.9721C49.2378 31.1773 50.9043 32.9418 53.2236 32.9418C55.0043 32.9418 56.246 31.9288 56.6705 30.3607H52.8645V28.2371H59.0555V29.1194C59.0555 32.3371 56.785 35.0984 53.2236 35.0984C49.4992 35.0984 47.0327 32.2718 47.0327 28.9721Z" fill="black"/>
<path d="M60.0705 30.165C60.0705 26.9957 62.3901 25.1827 64.8078 25.1827C66.0657 25.1827 67.1928 25.7052 67.879 26.5221V25.3788H70.0841V34.935H67.879V33.693C67.1763 34.5752 66.033 35.1311 64.7751 35.1311C62.4716 35.1311 60.0705 33.2847 60.0705 30.165ZM67.9932 30.1323C67.9932 28.515 66.768 27.1918 65.1346 27.1918C63.5011 27.1918 62.2432 28.4827 62.2432 30.1323C62.2432 31.7981 63.5011 33.1052 65.1346 33.1052C66.768 33.1052 67.9932 31.7819 67.9932 30.1323Z" fill="black"/>
<path d="M74.8559 30.165C74.8559 26.9957 77.1755 25.1827 79.5932 25.1827C80.8511 25.1827 81.9782 25.7052 82.6644 26.5221V25.3788H84.8696V34.935H82.6644V33.693C81.9621 34.5752 80.8187 35.1311 79.5605 35.1311C77.2574 35.1311 74.8559 33.2847 74.8559 30.165ZM82.779 30.1323C82.779 28.515 81.5538 27.1918 79.9206 27.1918C78.2868 27.1918 77.029 28.4827 77.029 30.1323C77.029 31.7981 78.2868 33.1052 79.9206 33.1052C81.5534 33.1052 82.779 31.7819 82.779 30.1323Z" fill="black"/>
<path d="M89.168 30.067L85.705 25.3788H88.4006L90.5727 28.417L92.7293 25.3788H95.3427L91.9121 30.0996L95.5715 34.935H92.8762L90.5404 31.7496L88.2695 34.935H85.5739L89.168 30.067Z" fill="black"/>
<path d="M99.7058 34.461L95.7854 25.3785H98.1374L100.8 31.8146L103.316 25.3785H105.636L99.9345 39.3453H97.6967L99.7058 34.461Z" fill="black"/>
<path d="M110.162 32.9583L112.188 31.3575C112.793 32.3866 113.724 32.9745 114.801 32.9745C115.978 32.9745 116.615 32.2074 116.615 31.3737C116.615 30.361 115.406 30.0508 114.132 29.6587C112.531 29.152 110.751 28.5315 110.751 26.2607C110.751 24.3497 112.417 22.8466 114.703 22.8466C116.632 22.8466 117.742 23.5819 118.706 24.5784L116.877 25.9666C116.37 25.2154 115.668 24.8233 114.72 24.8233C113.642 24.8233 113.054 25.4115 113.054 26.1788C113.054 27.1265 114.198 27.437 115.488 27.8618C117.106 28.3843 118.935 29.1032 118.935 31.3902C118.935 33.2685 117.432 35.0987 114.818 35.0987C112.662 35.0984 111.24 34.1831 110.162 32.9583Z" fill="black"/>
<path d="M119.116 25.3785H120.749V23.9245L122.971 22.4053V25.3785H124.915V27.3552H122.971V30.9324C122.971 32.5988 123.2 32.8603 124.915 32.8603V34.9347H124.605C121.648 34.9347 120.75 33.9874 120.75 30.9492V27.3552H119.116L119.116 25.3785Z" fill="black"/>
<path d="M125.504 30.165C125.504 27.3879 127.693 25.1824 130.453 25.1824C133.197 25.1824 135.403 27.3879 135.403 30.165C135.403 32.9256 133.197 35.1311 130.453 35.1311C127.693 35.1311 125.504 32.9256 125.504 30.165ZM133.23 30.165C133.23 28.5642 132.005 27.2572 130.453 27.2572C128.869 27.2572 127.676 28.5642 127.676 30.165C127.676 31.7496 128.869 33.0563 130.453 33.0563C132.005 33.0563 133.23 31.7496 133.23 30.165Z" fill="black"/>
<path d="M138.721 25.3785V26.7997C139.162 25.8521 139.962 25.3785 141.171 25.3785C141.857 25.3785 142.428 25.5418 142.853 25.7867L142.02 27.8777C141.693 27.6654 141.318 27.5021 140.697 27.5021C139.423 27.5021 138.736 28.1883 138.736 29.8379V34.9347H136.531V25.3785H138.721Z" fill="black"/>
<path d="M143.1 30.1812C143.1 27.3879 145.272 25.1824 148.065 25.1824C150.908 25.1824 152.983 27.2733 152.983 30.0996V30.9324H145.207C145.501 32.2724 146.579 33.187 148.148 33.187C149.373 33.187 150.336 32.5173 150.794 31.5044L152.607 32.5497C151.774 34.0858 150.271 35.1307 148.148 35.1307C145.142 35.1307 143.1 32.9418 143.1 30.1812ZM145.321 29.0867H150.745C150.418 27.8127 149.438 27.1265 148.066 27.1265C146.742 27.1265 145.713 27.9268 145.321 29.0867Z" fill="black"/>
<path d="M51.6513 15.7768H48.5749L48.0081 17.3454H47.0366L49.5869 10.3322H50.6495L53.1896 17.3454H52.2181L51.6513 15.7768ZM51.3882 15.0279L50.1131 11.4656L48.838 15.0279H51.3882Z" fill="black"/>
<path d="M55.7583 16.4953L57.4787 11.7996H58.4604L56.2846 17.3454H55.2118L53.036 11.7996H54.0278L55.7583 16.4953Z" fill="black"/>
<path d="M59.1237 14.5522C59.1237 13.9855 59.2384 13.4896 59.4678 13.0646C59.6972 12.6328 60.0109 12.2989 60.4089 12.0627C60.8137 11.8266 61.2624 11.7085 61.7549 11.7085C62.2407 11.7085 62.6623 11.8131 63.0199 12.0222C63.3775 12.2314 63.644 12.4945 63.8194 12.8116V11.7996H64.7504V17.3454H63.8194V16.3131C63.6372 16.637 63.364 16.9068 62.9997 17.1227C62.6421 17.3319 62.2238 17.4364 61.7448 17.4364C61.2523 17.4364 60.807 17.315 60.4089 17.0721C60.0109 16.8292 59.6972 16.4885 59.4678 16.05C59.2384 15.6115 59.1237 15.1122 59.1237 14.5522ZM63.8194 14.5624C63.8194 14.1441 63.735 13.7797 63.5664 13.4694C63.3977 13.1591 63.1683 12.9229 62.8782 12.761C62.5949 12.5923 62.2811 12.508 61.9371 12.508C61.593 12.508 61.2793 12.589 60.9959 12.7509C60.7125 12.9128 60.4865 13.1489 60.3179 13.4593C60.1492 13.7696 60.0649 14.1339 60.0649 14.5522C60.0649 14.9773 60.1492 15.3483 60.3179 15.6654C60.4865 15.9758 60.7125 16.2153 60.9959 16.384C61.2793 16.5459 61.593 16.6268 61.9371 16.6268C62.2811 16.6268 62.5949 16.5459 62.8782 16.384C63.1683 16.2153 63.3977 15.9758 63.5664 15.6654C63.735 15.3483 63.8194 14.9807 63.8194 14.5624Z" fill="black"/>
<path d="M66.5799 10.8989C66.4045 10.8989 66.2561 10.8382 66.1346 10.7168C66.0132 10.5953 65.9525 10.4469 65.9525 10.2715C65.9525 10.0961 66.0132 9.94764 66.1346 9.8262C66.2561 9.70476 66.4045 9.64404 66.5799 9.64404C66.7486 9.64404 66.8903 9.70476 67.005 9.8262C67.1264 9.94764 67.1871 10.0961 67.1871 10.2715C67.1871 10.4469 67.1264 10.5953 67.005 10.7168C66.8903 10.8382 66.7486 10.8989 66.5799 10.8989ZM67.0252 11.7996V17.3454H66.1043V11.7996H67.0252Z" fill="black"/>
<path d="M69.3133 9.85656V17.3454H68.3923V9.85656H69.3133Z" fill="black"/>
<path d="M70.5387 14.5522C70.5387 13.9855 70.6534 13.4896 70.8828 13.0646C71.1122 12.6328 71.4259 12.2989 71.824 12.0627C72.2288 11.8266 72.6774 11.7085 73.1699 11.7085C73.6557 11.7085 74.0774 11.8131 74.4349 12.0222C74.7925 12.2314 75.059 12.4945 75.2344 12.8116V11.7996H76.1655V17.3454H75.2344V16.3131C75.0523 16.637 74.779 16.9068 74.4147 17.1227C74.0571 17.3319 73.6388 17.4364 73.1598 17.4364C72.6673 17.4364 72.222 17.315 71.824 17.0721C71.4259 16.8292 71.1122 16.4885 70.8828 16.05C70.6534 15.6115 70.5387 15.1122 70.5387 14.5522ZM75.2344 14.5624C75.2344 14.1441 75.1501 13.7797 74.9814 13.4694C74.8127 13.1591 74.5834 12.9229 74.2933 12.761C74.0099 12.5923 73.6962 12.508 73.3521 12.508C73.008 12.508 72.6943 12.589 72.4109 12.7509C72.1276 12.9128 71.9016 13.1489 71.7329 13.4593C71.5642 13.7696 71.4799 14.1339 71.4799 14.5522C71.4799 14.9773 71.5642 15.3483 71.7329 15.6654C71.9016 15.9758 72.1276 16.2153 72.4109 16.384C72.6943 16.5459 73.008 16.6268 73.3521 16.6268C73.6962 16.6268 74.0099 16.5459 74.2933 16.384C74.5834 16.2153 74.8127 15.9758 74.9814 15.6654C75.1501 15.3483 75.2344 14.9807 75.2344 14.5624Z" fill="black"/>
<path d="M78.7438 12.8318C78.9327 12.5013 79.2094 12.2314 79.5737 12.0222C79.938 11.8131 80.3529 11.7085 80.8184 11.7085C81.3177 11.7085 81.7663 11.8266 82.1644 12.0627C82.5625 12.2989 82.8762 12.6328 83.1056 13.0646C83.3349 13.4896 83.4496 13.9855 83.4496 14.5522C83.4496 15.1122 83.3349 15.6115 83.1056 16.05C82.8762 16.4885 82.5591 16.8292 82.1543 17.0721C81.7562 17.315 81.3109 17.4364 80.8184 17.4364C80.3394 17.4364 79.9178 17.3319 79.5534 17.1227C79.1959 16.9136 78.926 16.6471 78.7438 16.3232V17.3454H77.8229V9.85656H78.7438V12.8318ZM82.5085 14.5522C82.5085 14.1339 82.4241 13.7696 82.2555 13.4593C82.0868 13.1489 81.8574 12.9128 81.5673 12.7509C81.284 12.589 80.9702 12.508 80.6262 12.508C80.2888 12.508 79.9751 12.5923 79.685 12.761C79.4016 12.9229 79.1723 13.1624 78.9968 13.4795C78.8282 13.7899 78.7438 14.1508 78.7438 14.5624C78.7438 14.9807 78.8282 15.3483 78.9968 15.6654C79.1723 15.9758 79.4016 16.2153 79.685 16.384C79.9751 16.5459 80.2888 16.6268 80.6262 16.6268C80.9702 16.6268 81.284 16.5459 81.5673 16.384C81.8574 16.2153 82.0868 15.9758 82.2555 15.6654C82.4241 15.3483 82.5085 14.9773 82.5085 14.5522Z" fill="black"/>
<path d="M85.5827 9.85656V17.3454H84.6618V9.85656H85.5827Z" fill="black"/>
<path d="M92.3135 14.36C92.3135 14.5354 92.3034 14.7209 92.2831 14.9166H87.8506C87.8843 15.463 88.0698 15.8915 88.4072 16.2018C88.7513 16.5054 89.1662 16.6572 89.6519 16.6572C90.05 16.6572 90.3806 16.5661 90.6437 16.384C90.9136 16.1951 91.1025 15.9454 91.2104 15.6351H92.2022C92.0537 16.1681 91.7569 16.6032 91.3116 16.9406C90.8663 17.2712 90.3131 17.4364 89.6519 17.4364C89.1257 17.4364 88.6534 17.3184 88.2351 17.0822C87.8236 16.8461 87.4997 16.5121 87.2636 16.0804C87.0275 15.6418 86.9094 15.1358 86.9094 14.5624C86.9094 13.9889 87.0241 13.4863 87.2535 13.0545C87.4829 12.6227 87.8033 12.2921 88.2149 12.0627C88.6332 11.8266 89.1122 11.7085 89.6519 11.7085C90.1782 11.7085 90.6437 11.8232 91.0485 12.0526C91.4533 12.282 91.7636 12.5991 91.9795 13.0039C92.2022 13.4019 92.3135 13.854 92.3135 14.36ZM91.3622 14.1677C91.3622 13.8169 91.2846 13.5166 91.1294 13.267C90.9743 13.0106 90.7618 12.8184 90.4919 12.6902C90.2288 12.5552 89.9353 12.4878 89.6115 12.4878C89.1459 12.4878 88.7479 12.6362 88.4173 12.933C88.0934 13.2299 87.9079 13.6414 87.8607 14.1677H91.3622Z" fill="black"/>
<path d="M98.8482 17.4364C98.3287 17.4364 97.8564 17.3184 97.4314 17.0822C97.0131 16.8461 96.6825 16.5121 96.4396 16.0804C96.2035 15.6418 96.0854 15.1358 96.0854 14.5624C96.0854 13.9956 96.2068 13.4964 96.4497 13.0646C96.6993 12.6261 97.0367 12.2921 97.4617 12.0627C97.8868 11.8266 98.3624 11.7085 98.8886 11.7085C99.4149 11.7085 99.8905 11.8266 100.316 12.0627C100.741 12.2921 101.075 12.6227 101.317 13.0545C101.567 13.4863 101.692 13.9889 101.692 14.5624C101.692 15.1358 101.564 15.6418 101.307 16.0804C101.058 16.5121 100.717 16.8461 100.285 17.0822C99.8534 17.3184 99.3744 17.4364 98.8482 17.4364ZM98.8482 16.6268C99.1787 16.6268 99.4891 16.5493 99.7792 16.3941C100.069 16.2389 100.302 16.0062 100.477 15.6958C100.66 15.3855 100.751 15.0076 100.751 14.5624C100.751 14.1171 100.663 13.7393 100.488 13.4289C100.312 13.1186 100.083 12.8892 99.7994 12.7408C99.5161 12.5856 99.2091 12.508 98.8785 12.508C98.5412 12.508 98.2308 12.5856 97.9475 12.7408C97.6709 12.8892 97.4482 13.1186 97.2796 13.4289C97.1109 13.7393 97.0266 14.1171 97.0266 14.5624C97.0266 15.0144 97.1075 15.3956 97.2694 15.7059C97.4381 16.0163 97.6608 16.249 97.9374 16.4042C98.214 16.5526 98.5176 16.6268 98.8482 16.6268Z" fill="black"/>
<path d="M105.807 11.6984C106.482 11.6984 107.028 11.9042 107.447 12.3157C107.865 12.7205 108.074 13.3075 108.074 14.0766V17.3454H107.163V14.2082C107.163 13.6549 107.025 13.2333 106.748 12.9432C106.472 12.6463 106.094 12.4979 105.615 12.4979C105.129 12.4979 104.741 12.6497 104.451 12.9533C104.168 13.2569 104.026 13.6988 104.026 14.279V17.3454H103.105V11.7996H104.026V12.589C104.208 12.3056 104.454 12.0863 104.765 11.9312C105.082 11.776 105.429 11.6984 105.807 11.6984Z" fill="black"/>
<path fill-rule="evenodd" clip-rule="evenodd" d="M10.4865 16.5373C10.1826 17.8033 10.1826 19.3373 10.1826 22.4052C10.1826 25.4732 10.1826 27.0072 10.4865 28.2731C11.4522 32.2953 14.5926 35.4357 18.6147 36.4013C19.8807 36.7052 21.4147 36.7052 24.4826 36.7052C27.5506 36.7052 29.0846 36.7052 30.3505 36.4013C34.3727 35.4357 37.5131 32.2953 38.4787 28.2731C38.7826 27.0072 38.7826 25.4732 38.7826 22.4052C38.7826 19.3373 38.7826 17.8033 38.4787 16.5373C37.5131 12.5152 34.3727 9.37479 30.3505 8.40916C29.0846 8.10522 27.5506 8.10522 24.4826 8.10522C21.4147 8.10522 19.8807 8.10522 18.6147 8.40916C14.5926 9.37479 11.4522 12.5152 10.4865 16.5373ZM28.5944 18.3727L28.6532 18.6316H32.0296L31.1194 27.1163C30.9371 28.8419 29.4817 30.1516 27.7462 30.1516H21.2184C19.483 30.1516 18.0275 28.8419 17.8453 27.1161L16.9352 18.6316H20.3115L20.3705 18.3727C20.3705 16.1058 22.215 14.2617 24.4823 14.2617C26.7496 14.2617 28.5944 16.1058 28.5944 18.3727ZM22.1653 18.3727L22.099 18.6316H26.8657L26.7995 18.3727C26.7995 17.0954 25.7601 16.0562 24.4823 16.0562C23.2048 16.0562 22.1653 17.0954 22.1653 18.3727Z" fill="black"/>
</svg>
