<svg width="157" height="48" viewBox="0 0 157 48" fill="none" xmlns="http://www.w3.org/2000/svg">
<rect x="0.578397" y="1.5491" width="155.01" height="45.115" rx="7.4216" fill="white"/>
<rect x="0.578397" y="1.5491" width="155.01" height="45.115" rx="7.4216" stroke="#101828" stroke-width="1.15679"/>
<path d="M78.8192 26.132C76.0985 26.132 73.8809 28.2015 73.8809 31.0518C73.8809 33.8848 76.0985 35.9717 78.8192 35.9717C81.5412 35.9717 83.7587 33.8848 83.7587 31.0518C83.7576 28.2015 81.54 26.132 78.8192 26.132ZM78.8192 34.0352C77.3281 34.0352 76.0429 32.8055 76.0429 31.053C76.0429 29.2819 77.3293 28.0708 78.8192 28.0708C80.3103 28.0708 81.5955 29.2819 81.5955 31.053C81.5955 32.8044 80.3103 34.0352 78.8192 34.0352ZM68.0449 26.132C65.3241 26.132 63.1065 28.2015 63.1065 31.0518C63.1065 33.8848 65.3241 35.9717 68.0449 35.9717C70.7668 35.9717 72.9844 33.8848 72.9844 31.0518C72.9844 28.2015 70.7668 26.132 68.0449 26.132ZM68.0449 34.0352C66.5537 34.0352 65.2685 32.8055 65.2685 31.053C65.2685 29.2819 66.5549 28.0708 68.0449 28.0708C69.536 28.0708 70.8212 29.2819 70.8212 31.053C70.8223 32.8044 69.536 34.0352 68.0449 34.0352ZM55.2299 27.6428V29.7296H60.2249C60.0757 30.9038 59.6847 31.761 59.0878 32.3567C58.3613 33.0832 57.2242 33.8848 55.2299 33.8848C52.1551 33.8848 49.7513 31.4058 49.7513 28.3311C49.7513 25.2563 52.1551 22.7773 55.2299 22.7773C56.8887 22.7773 58.0999 23.4297 58.9941 24.2684L60.4667 22.7958C59.2174 21.6031 57.5597 20.6904 55.2299 20.6904C51.018 20.6904 47.4771 24.1192 47.4771 28.3311C47.4771 32.5429 51.018 35.9717 55.2299 35.9717C57.503 35.9717 59.2185 35.2256 60.5592 33.8281C61.9381 32.4492 62.3673 30.5105 62.3673 28.9453C62.3673 28.4618 62.3303 28.0141 62.2551 27.6416H55.2299V27.6428ZM107.642 29.2634C107.232 28.1645 105.983 26.132 103.43 26.132C100.896 26.132 98.789 28.1263 98.789 31.0518C98.789 33.8096 100.877 35.9717 103.672 35.9717C105.926 35.9717 107.231 34.5928 107.773 33.7911L106.095 32.6725C105.537 33.4927 104.772 34.0329 103.672 34.0329C102.573 34.0329 101.79 33.5297 101.286 32.5418L107.865 29.821L107.642 29.2634ZM100.933 30.9038C100.877 29.002 102.405 28.0338 103.505 28.0338C104.362 28.0338 105.089 28.4629 105.332 29.0772L100.933 30.9038ZM95.5847 35.6744H97.7456V21.2133H95.5847V35.6744ZM92.0426 27.2321H91.9685C91.4838 26.6537 90.5514 26.132 89.3785 26.132C86.918 26.132 84.6634 28.294 84.6634 31.0715C84.6634 33.8293 86.918 35.9728 89.3785 35.9728C90.5526 35.9728 91.4838 35.4511 91.9685 34.8554H92.0426V35.5633C92.0426 37.4454 91.0361 38.4519 89.4155 38.4519C88.0921 38.4519 87.2719 37.5021 86.9365 36.7005L85.0544 37.4836C85.5946 38.7873 87.029 40.3906 89.4155 40.3906C91.95 40.3906 94.0935 38.8995 94.0935 35.2649V26.4316H92.0437V27.2321H92.0426ZM89.5647 34.0352C88.0736 34.0352 86.8254 32.7859 86.8254 31.0715C86.8254 29.3375 88.0736 28.0708 89.5647 28.0708C91.0361 28.0708 92.1918 29.3375 92.1918 31.0715C92.1918 32.7859 91.0361 34.0352 89.5647 34.0352ZM117.769 21.2133H112.596V35.6744H114.754V30.1958H117.767C120.16 30.1958 122.513 28.4641 122.513 25.7051C122.513 22.9462 120.161 21.2133 117.769 21.2133ZM117.824 28.183H114.754V23.2261H117.824C119.438 23.2261 120.354 24.5622 120.354 25.7051C120.354 26.8249 119.438 28.183 117.824 28.183ZM131.164 26.1065C129.601 26.1065 127.983 26.7948 127.313 28.3206L129.229 29.12C129.638 28.3206 130.402 28.0592 131.201 28.0592C132.318 28.0592 133.452 28.729 133.471 29.9193V30.0686C133.08 29.8453 132.242 29.511 131.22 29.511C129.155 29.511 127.052 30.6458 127.052 32.7662C127.052 34.7015 128.745 35.9474 130.642 35.9474C132.093 35.9474 132.894 35.2961 133.396 34.5326H133.47V35.6489H135.554V30.1044C135.555 27.5387 133.637 26.1065 131.164 26.1065ZM130.903 34.0317C130.197 34.0317 129.21 33.6778 129.21 32.8032C129.21 31.6869 130.439 31.2589 131.5 31.2589C132.447 31.2589 132.895 31.4637 133.471 31.7424C133.303 33.0832 132.15 34.0317 130.903 34.0317ZM143.145 26.4223L140.671 32.6922H140.597L138.029 26.4223H135.703L139.554 35.1851L137.359 40.0598H139.61L145.545 26.4223H143.145ZM123.704 35.6744H125.861V21.2133H123.704V35.6744Z" fill="#101828"/>
<path d="M54.8531 12.8202C54.8531 13.7896 54.5662 14.5612 53.9912 15.1373C53.3388 15.8221 52.4874 16.1645 51.4417 16.1645C50.4399 16.1645 49.5873 15.8174 48.8875 15.1234C48.1864 14.4281 47.8359 13.5675 47.8359 12.5403C47.8359 11.5119 48.1864 10.6512 48.8875 9.95713C49.5873 9.2619 50.4399 8.91486 51.4417 8.91486C51.9391 8.91486 52.4145 9.01203 52.8657 9.20521C53.318 9.39955 53.6801 9.65752 53.9508 9.98027L53.3411 10.5911C52.8819 10.0416 52.2491 9.76741 51.4405 9.76741C50.7094 9.76741 50.0778 10.0242 49.5445 10.5378C49.0112 11.0515 48.7452 11.7189 48.7452 12.5391C48.7452 13.3593 49.0112 14.0267 49.5445 14.5403C50.0778 15.054 50.7094 15.3108 51.4405 15.3108C52.2156 15.3108 52.8622 15.0528 53.3793 14.5357C53.7148 14.1991 53.9091 13.7306 53.9612 13.1302H51.4405V12.2962H54.8033C54.838 12.4778 54.8531 12.6525 54.8531 12.8202Z" fill="#101828"/>
<path d="M60.186 9.92133H57.0256V12.1216H59.876V12.9556H57.0256V15.1558H60.186V16.0095H56.1337V9.06878H60.186V9.92133Z" fill="#101828"/>
<path d="M63.9466 16.0095H63.0547V9.92133H61.1159V9.06878H65.8854V9.92133H63.9466V16.0095Z" fill="#101828"/>
<path d="M69.336 16.0095V9.06878H70.2279V16.0095H69.336Z" fill="#101828"/>
<path d="M74.1832 16.0095H73.2913V9.92133H71.3525V9.06878H76.122V9.92133H74.1832V16.0095Z" fill="#101828"/>
<path d="M85.1505 15.113C84.468 15.814 83.6201 16.1645 82.6056 16.1645C81.5911 16.1645 80.7431 15.814 80.0618 15.113C79.3793 14.412 79.0392 13.5537 79.0392 12.5391C79.0392 11.5246 79.3793 10.6663 80.0618 9.96528C80.7431 9.26426 81.5911 8.9126 82.6056 8.9126C83.6143 8.9126 84.4611 9.26542 85.1459 9.96991C85.8307 10.6744 86.1731 11.5304 86.1731 12.5391C86.1731 13.5537 85.8319 14.412 85.1505 15.113ZM80.72 14.5311C81.2336 15.0517 81.8617 15.3108 82.6056 15.3108C83.3494 15.3108 83.9787 15.0505 84.4911 14.5311C85.0048 14.0106 85.2627 13.3466 85.2627 12.5391C85.2627 11.7317 85.0048 11.0677 84.4911 10.5471C83.9787 10.0266 83.3494 9.76747 82.6056 9.76747C81.8617 9.76747 81.2336 10.0277 80.72 10.5471C80.2075 11.0677 79.9496 11.7317 79.9496 12.5391C79.9496 13.3466 80.2075 14.0106 80.72 14.5311Z" fill="#101828"/>
<path d="M87.4248 16.0095V9.06878H88.5099L91.8831 14.4675H91.9213L91.8831 13.1303V9.06878H92.775V16.0095H91.8437L88.3144 10.3482H88.2762L88.3144 11.6854V16.0095H87.4248Z" fill="#101828"/>
<path d="M54.8531 12.8202C54.8531 13.7896 54.5662 14.5612 53.9912 15.1373C53.3388 15.8221 52.4874 16.1645 51.4417 16.1645C50.4399 16.1645 49.5873 15.8174 48.8875 15.1234C48.1864 14.4281 47.8359 13.5675 47.8359 12.5403C47.8359 11.5119 48.1864 10.6512 48.8875 9.95713C49.5873 9.2619 50.4399 8.91486 51.4417 8.91486C51.9391 8.91486 52.4145 9.01203 52.8657 9.20521C53.318 9.39955 53.6801 9.65752 53.9508 9.98027L53.3411 10.5911C52.8819 10.0416 52.2491 9.76741 51.4405 9.76741C50.7094 9.76741 50.0778 10.0242 49.5445 10.5378C49.0112 11.0515 48.7452 11.7189 48.7452 12.5391C48.7452 13.3593 49.0112 14.0267 49.5445 14.5403C50.0778 15.054 50.7094 15.3108 51.4405 15.3108C52.2156 15.3108 52.8622 15.0528 53.3793 14.5357C53.7148 14.1991 53.9091 13.7306 53.9612 13.1302H51.4405V12.2962H54.8033C54.838 12.4778 54.8531 12.6525 54.8531 12.8202Z" stroke="#101828" stroke-width="0.231359" stroke-miterlimit="10"/>
<path d="M60.186 9.92133H57.0256V12.1216H59.876V12.9556H57.0256V15.1558H60.186V16.0095H56.1337V9.06878H60.186V9.92133Z" stroke="#101828" stroke-width="0.231359" stroke-miterlimit="10"/>
<path d="M63.9466 16.0095H63.0547V9.92133H61.1159V9.06878H65.8854V9.92133H63.9466V16.0095Z" stroke="#101828" stroke-width="0.231359" stroke-miterlimit="10"/>
<path d="M69.336 16.0095V9.06878H70.2279V16.0095H69.336Z" stroke="#101828" stroke-width="0.231359" stroke-miterlimit="10"/>
<path d="M74.1832 16.0095H73.2913V9.92133H71.3525V9.06878H76.122V9.92133H74.1832V16.0095Z" stroke="#101828" stroke-width="0.231359" stroke-miterlimit="10"/>
<path d="M85.1505 15.113C84.468 15.814 83.6201 16.1645 82.6056 16.1645C81.5911 16.1645 80.7431 15.814 80.0618 15.113C79.3793 14.412 79.0392 13.5537 79.0392 12.5391C79.0392 11.5246 79.3793 10.6663 80.0618 9.96528C80.7431 9.26426 81.5911 8.9126 82.6056 8.9126C83.6143 8.9126 84.4611 9.26542 85.1459 9.96991C85.8307 10.6744 86.1731 11.5304 86.1731 12.5391C86.1731 13.5537 85.8319 14.412 85.1505 15.113ZM80.72 14.5311C81.2336 15.0517 81.8617 15.3108 82.6056 15.3108C83.3494 15.3108 83.9787 15.0505 84.4911 14.5311C85.0048 14.0106 85.2627 13.3466 85.2627 12.5391C85.2627 11.7317 85.0048 11.0677 84.4911 10.5471C83.9787 10.0266 83.3494 9.76747 82.6056 9.76747C81.8617 9.76747 81.2336 10.0277 80.72 10.5471C80.2075 11.0677 79.9496 11.7317 79.9496 12.5391C79.9496 13.3466 80.2075 14.0106 80.72 14.5311Z" stroke="#101828" stroke-width="0.231359" stroke-miterlimit="10"/>
<path d="M87.4248 16.0095V9.06878H88.5099L91.8831 14.4675H91.9213L91.8831 13.1303V9.06878H92.775V16.0095H91.8437L88.3144 10.3482H88.2762L88.3144 11.6854V16.0095H87.4248Z" stroke="#101828" stroke-width="0.231359" stroke-miterlimit="10"/>
<path fill-rule="evenodd" clip-rule="evenodd" d="M11.7491 10.1866C11.6126 10.496 11.5371 10.8751 11.5371 11.3161V36.8997C11.5371 37.3416 11.6126 37.7207 11.7494 38.03L25.6699 24.1074L11.7491 10.1866ZM12.5532 38.8621C13.0692 39.083 13.7424 39.0131 14.4765 38.5968L30.8532 29.2907L26.4879 24.9254L12.5532 38.8621ZM31.8972 28.6987L37.0352 25.7795C38.6512 24.8598 38.6512 23.3572 37.0352 22.4387L31.8948 19.5177L27.3058 24.1073L31.8972 28.6987ZM30.8516 18.925L14.4765 9.62022C13.7424 9.20305 13.0692 9.13349 12.5532 9.35469L26.4878 23.2894L30.8516 18.925Z" fill="#101828"/>
</svg>
