<svg width="121" height="45" viewBox="0 0 121 45" fill="none" xmlns="http://www.w3.org/2000/svg">
<rect y="0.405029" width="121" height="44" rx="7.25" fill="white"/>
<path d="M51.6645 16.5546H48.5682L47.9978 18.1232H47.02L49.5867 11.11H50.6562L53.2127 18.1232H52.2349L51.6645 16.5546ZM51.3997 15.8057L50.1163 12.2435L48.833 15.8057H51.3997Z" fill="black"/>
<path d="M55.798 17.2731L57.5295 12.5774H58.5175L56.3276 18.1232H55.248L53.0581 12.5774H54.0563L55.798 17.2731Z" fill="black"/>
<path d="M59.1851 15.3301C59.1851 14.7634 59.3005 14.2675 59.5314 13.8424C59.7622 13.4106 60.078 13.0767 60.4786 12.8406C60.886 12.6044 61.3376 12.4864 61.8332 12.4864C62.3221 12.4864 62.7465 12.5909 63.1064 12.8001C63.4663 13.0092 63.7345 13.2723 63.911 13.5894V12.5774H64.8481V18.1232H63.911V17.091C63.7277 17.4148 63.4527 17.6847 63.086 17.9006C62.7262 18.1097 62.3052 18.2143 61.8231 18.2143C61.3274 18.2143 60.8792 18.0928 60.4786 17.85C60.078 17.6071 59.7622 17.2664 59.5314 16.8278C59.3005 16.3893 59.1851 15.89 59.1851 15.3301ZM63.911 15.3402C63.911 14.9219 63.8262 14.5576 63.6564 14.2472C63.4867 13.9369 63.2558 13.7008 62.9638 13.5388C62.6786 13.3702 62.3629 13.2858 62.0166 13.2858C61.6703 13.2858 61.3545 13.3668 61.0694 13.5287C60.7842 13.6906 60.5567 13.9268 60.3869 14.2371C60.2172 14.5475 60.1323 14.9118 60.1323 15.3301C60.1323 15.7551 60.2172 16.1262 60.3869 16.4433C60.5567 16.7536 60.7842 16.9931 61.0694 17.1618C61.3545 17.3237 61.6703 17.4047 62.0166 17.4047C62.3629 17.4047 62.6786 17.3237 62.9638 17.1618C63.2558 16.9931 63.4867 16.7536 63.6564 16.4433C63.8262 16.1262 63.911 15.7585 63.911 15.3402Z" fill="black"/>
<path d="M66.6894 11.6768C66.5129 11.6768 66.3635 11.616 66.2412 11.4946C66.119 11.3732 66.0579 11.2247 66.0579 11.0493C66.0579 10.8739 66.119 10.7255 66.2412 10.604C66.3635 10.4826 66.5129 10.4219 66.6894 10.4219C66.8592 10.4219 67.0018 10.4826 67.1172 10.604C67.2394 10.7255 67.3005 10.8739 67.3005 11.0493C67.3005 11.2247 67.2394 11.3732 67.1172 11.4946C67.0018 11.616 66.8592 11.6768 66.6894 11.6768ZM67.1376 12.5774V18.1232H66.2107V12.5774H67.1376Z" fill="black"/>
<path d="M69.4404 10.6344V18.1232H68.5135V10.6344H69.4404Z" fill="black"/>
<path d="M70.6738 15.3301C70.6738 14.7634 70.7892 14.2675 71.0201 13.8424C71.2509 13.4106 71.5667 13.0767 71.9673 12.8406C72.3747 12.6044 72.8262 12.4864 73.3219 12.4864C73.8108 12.4864 74.2352 12.5909 74.5951 12.8001C74.955 13.0092 75.2232 13.2723 75.3997 13.5894V12.5774H76.3368V18.1232H75.3997V17.091C75.2164 17.4148 74.9414 17.6847 74.5747 17.9006C74.2148 18.1097 73.7939 18.2143 73.3117 18.2143C72.8161 18.2143 72.3679 18.0928 71.9673 17.85C71.5667 17.6071 71.2509 17.2664 71.0201 16.8278C70.7892 16.3893 70.6738 15.89 70.6738 15.3301ZM75.3997 15.3402C75.3997 14.9219 75.3149 14.5576 75.1451 14.2472C74.9753 13.9369 74.7445 13.7008 74.4525 13.5388C74.1673 13.3702 73.8516 13.2858 73.5053 13.2858C73.159 13.2858 72.8432 13.3668 72.558 13.5287C72.2728 13.6906 72.0454 13.9268 71.8756 14.2371C71.7059 14.5475 71.621 14.9118 71.621 15.3301C71.621 15.7551 71.7059 16.1262 71.8756 16.4433C72.0454 16.7536 72.2728 16.9931 72.558 17.1618C72.8432 17.3237 73.159 17.4047 73.5053 17.4047C73.8516 17.4047 74.1673 17.3237 74.4525 17.1618C74.7445 16.9931 74.9753 16.7536 75.1451 16.4433C75.3149 16.1262 75.3997 15.7585 75.3997 15.3402Z" fill="black"/>
<path d="M78.9318 13.6097C79.1219 13.2791 79.4003 13.0092 79.767 12.8001C80.1337 12.5909 80.5513 12.4864 81.0198 12.4864C81.5223 12.4864 81.9738 12.6044 82.3744 12.8406C82.7751 13.0767 83.0908 13.4106 83.3217 13.8424C83.5525 14.2675 83.668 14.7634 83.668 15.3301C83.668 15.89 83.5525 16.3893 83.3217 16.8278C83.0908 17.2664 82.7717 17.6071 82.3642 17.85C81.9636 18.0928 81.5155 18.2143 81.0198 18.2143C80.5377 18.2143 80.1133 18.1097 79.7466 17.9006C79.3867 17.6914 79.1151 17.4249 78.9318 17.1011V18.1232H78.0049V10.6344H78.9318V13.6097ZM82.7207 15.3301C82.7207 14.9118 82.6359 14.5475 82.4661 14.2371C82.2963 13.9268 82.0655 13.6906 81.7735 13.5287C81.4883 13.3668 81.1726 13.2858 80.8263 13.2858C80.4868 13.2858 80.171 13.3702 79.879 13.5388C79.5938 13.7008 79.363 13.9403 79.1864 14.2574C79.0167 14.5677 78.9318 14.9286 78.9318 15.3402C78.9318 15.7585 79.0167 16.1262 79.1864 16.4433C79.363 16.7536 79.5938 16.9931 79.879 17.1618C80.171 17.3237 80.4868 17.4047 80.8263 17.4047C81.1726 17.4047 81.4883 17.3237 81.7735 17.1618C82.0655 16.9931 82.2963 16.7536 82.4661 16.4433C82.6359 16.1262 82.7207 15.7551 82.7207 15.3301Z" fill="black"/>
<path d="M85.8148 10.6344V18.1232H84.888V10.6344H85.8148Z" fill="black"/>
<path d="M92.589 15.1378C92.589 15.3132 92.5788 15.4987 92.5584 15.6944H88.0973C88.1312 16.2409 88.318 16.6693 88.6575 16.9796C89.0038 17.2832 89.4214 17.435 89.9103 17.435C90.3109 17.435 90.6436 17.344 90.9084 17.1618C91.18 16.9729 91.3702 16.7233 91.4788 16.4129H92.477C92.3276 16.9459 92.0288 17.3811 91.5807 17.7184C91.1325 18.049 90.5757 18.2143 89.9103 18.2143C89.3806 18.2143 88.9053 18.0962 88.4843 17.8601C88.0701 17.6239 87.7442 17.29 87.5065 16.8582C87.2689 16.4197 87.1501 15.9137 87.1501 15.3402C87.1501 14.7667 87.2655 14.2641 87.4964 13.8323C87.7272 13.4005 88.0498 13.0699 88.464 12.8406C88.8849 12.6044 89.3671 12.4864 89.9103 12.4864C90.4399 12.4864 90.9084 12.601 91.3158 12.8304C91.7232 13.0598 92.0356 13.3769 92.2529 13.7817C92.477 14.1798 92.589 14.6318 92.589 15.1378ZM91.6316 14.9455C91.6316 14.5947 91.5535 14.2945 91.3973 14.0448C91.2411 13.7885 91.0273 13.5962 90.7556 13.468C90.4908 13.3331 90.1955 13.2656 89.8695 13.2656C89.401 13.2656 89.0004 13.414 88.6677 13.7109C88.3417 14.0077 88.155 14.4193 88.1075 14.9455H91.6316Z" fill="black"/>
<path d="M99.1658 18.2143C98.643 18.2143 98.1677 18.0962 97.7399 17.8601C97.3189 17.6239 96.9862 17.29 96.7417 16.8582C96.5041 16.4197 96.3852 15.9137 96.3852 15.3402C96.3852 14.7735 96.5075 14.2742 96.7519 13.8424C97.0032 13.4039 97.3427 13.0699 97.7704 12.8406C98.1982 12.6044 98.6769 12.4864 99.2066 12.4864C99.7362 12.4864 100.215 12.6044 100.643 12.8406C101.07 13.0699 101.407 13.4005 101.651 13.8323C101.902 14.2641 102.028 14.7667 102.028 15.3402C102.028 15.9137 101.899 16.4197 101.641 16.8582C101.39 17.29 101.047 17.6239 100.612 17.8601C100.178 18.0962 99.6955 18.2143 99.1658 18.2143ZM99.1658 17.4047C99.4985 17.4047 99.8109 17.3271 100.103 17.1719C100.395 17.0167 100.629 16.784 100.806 16.4736C100.989 16.1633 101.081 15.7855 101.081 15.3402C101.081 14.8949 100.992 14.5171 100.816 14.2068C100.639 13.8964 100.408 13.667 100.123 13.5186C99.8381 13.3634 99.5291 13.2858 99.1964 13.2858C98.8569 13.2858 98.5445 13.3634 98.2593 13.5186C97.9809 13.667 97.7569 13.8964 97.5871 14.2068C97.4174 14.5171 97.3325 14.8949 97.3325 15.3402C97.3325 15.7922 97.414 16.1734 97.5769 16.4838C97.7467 16.7941 97.9708 17.0269 98.2492 17.182C98.5276 17.3305 98.8331 17.4047 99.1658 17.4047Z" fill="black"/>
<path d="M106.17 12.4762C106.849 12.4762 107.399 12.682 107.82 13.0936C108.241 13.4984 108.451 14.0853 108.451 14.8544V18.1232H107.535V14.986C107.535 14.4328 107.395 14.0111 107.117 13.721C106.839 13.4241 106.458 13.2757 105.976 13.2757C105.487 13.2757 105.097 13.4275 104.805 13.7311C104.52 14.0347 104.377 14.4766 104.377 15.0568V18.1232H103.45V12.5774H104.377V13.3668C104.56 13.0834 104.808 12.8642 105.121 12.709C105.44 12.5538 105.789 12.4762 106.17 12.4762Z" fill="black"/>
<path d="M32.0999 23.1632C32.1249 21.2186 33.1692 19.3786 34.8259 18.3601C33.7808 16.8675 32.0302 15.9211 30.209 15.8641C28.2664 15.6602 26.3832 17.0265 25.3934 17.0265C24.3843 17.0265 22.8602 15.8844 21.2191 15.9181C19.0799 15.9872 17.0856 17.2035 16.0448 19.0737C13.8076 22.9471 15.4764 28.6398 17.6194 31.7708C18.6917 33.3039 19.9448 35.0165 21.5845 34.9558C23.189 34.8892 23.7883 33.9326 25.7251 33.9326C27.644 33.9326 28.2062 34.9558 29.8792 34.9172C31.6009 34.8892 32.6857 33.3772 33.7203 31.8295C34.4907 30.7371 35.0835 29.5297 35.4768 28.2521C33.4535 27.3963 32.1022 25.3601 32.0999 23.1632Z" fill="#101828"/>
<path d="M28.9399 13.805C29.8787 12.6781 30.3412 11.2295 30.2292 9.76709C28.7949 9.91773 27.4701 10.6032 26.5187 11.6869C25.5883 12.7458 25.1041 14.1688 25.1956 15.5754C26.6304 15.5901 28.0408 14.9232 28.9399 13.805Z" fill="#101828"/>
<path d="M47.9798 35.7671V27.592H49.6873V35.7671H47.9798ZM47.9798 26.4738V24.5093H49.6873V26.4738H47.9798ZM51.85 35.7671V24.5093H53.5122L57.7433 30.3724H56.9122L61.0677 24.5093H62.73V35.7671H60.962V26.6098L61.6269 26.7911L57.3806 32.5938H57.1993L53.0437 26.7911L53.6331 26.6098V35.7671H51.85ZM67.3392 35.9484C66.7851 35.9484 66.2965 35.8527 65.8734 35.6613C65.4604 35.4598 65.138 35.1878 64.9063 34.8453C64.6746 34.4927 64.5588 34.0797 64.5588 33.6062C64.5588 33.1629 64.6545 32.765 64.8459 32.4124C65.0474 32.0598 65.3546 31.7626 65.7677 31.5209C66.1807 31.2791 66.6995 31.1078 67.3241 31.0071L70.165 30.5386V31.8835L67.6565 32.3218C67.2032 32.4023 66.8708 32.5484 66.6592 32.76C66.4477 32.9615 66.3419 33.2234 66.3419 33.5458C66.3419 33.8581 66.4577 34.1149 66.6894 34.3164C66.9312 34.5078 67.2385 34.6035 67.6112 34.6035C68.0746 34.6035 68.4776 34.5028 68.8201 34.3013C69.1727 34.0998 69.4447 33.8329 69.6361 33.5004C69.8275 33.1579 69.9232 32.7801 69.9232 32.3671V30.2666C69.9232 29.8637 69.7721 29.5363 69.4699 29.2844C69.1777 29.0225 68.7848 28.8915 68.2912 28.8915C67.8379 28.8915 67.44 29.0124 67.0974 29.2542C66.765 29.4859 66.5182 29.7881 66.357 30.1609L64.9365 29.4506C65.0877 29.0477 65.3345 28.6951 65.677 28.3929C66.0195 28.0806 66.4174 27.8388 66.8708 27.6675C67.3342 27.4963 67.8228 27.4106 68.3365 27.4106C68.9813 27.4106 69.5505 27.5315 70.0441 27.7733C70.5478 28.0151 70.9357 28.3526 71.2077 28.7858C71.4897 29.2089 71.6308 29.7025 71.6308 30.2666V35.7671H69.9988V34.2862L70.3463 34.3315C70.1549 34.664 69.9081 34.9511 69.6059 35.1929C69.3137 35.4346 68.9763 35.621 68.5934 35.752C68.2207 35.8829 67.8026 35.9484 67.3392 35.9484ZM77.5109 35.9484C76.6949 35.9484 75.9695 35.7621 75.3349 35.3893C74.7103 35.0065 74.2116 34.4927 73.8389 33.848C73.4762 33.2032 73.2949 32.4729 73.2949 31.6569C73.2949 30.8509 73.4762 30.1256 73.8389 29.4809C74.2015 28.8361 74.7002 28.3324 75.3349 27.9698C75.9695 27.597 76.6949 27.4106 77.5109 27.4106C78.065 27.4106 78.5838 27.5114 79.0673 27.7129C79.5509 27.9043 79.969 28.1712 80.3215 28.5138C80.6842 28.8563 80.9512 29.2542 81.1224 29.7075L79.6264 30.4026C79.4552 29.9795 79.1781 29.6421 78.7953 29.3902C78.4226 29.1283 77.9944 28.9973 77.5109 28.9973C77.0475 28.9973 76.6294 29.1132 76.2567 29.3449C75.894 29.5665 75.6069 29.8838 75.3953 30.2969C75.1838 30.6998 75.078 31.1582 75.078 31.672C75.078 32.1858 75.1838 32.6492 75.3953 33.0622C75.6069 33.4652 75.894 33.7825 76.2567 34.0142C76.6294 34.2459 77.0475 34.3618 77.5109 34.3618C78.0045 34.3618 78.4327 34.2358 78.7953 33.984C79.1681 33.7221 79.4451 33.3745 79.6264 32.9413L81.1224 33.6515C80.9613 34.0847 80.6993 34.4776 80.3367 34.8302C79.9841 35.1727 79.566 35.4447 79.0824 35.6462C78.5989 35.8477 78.075 35.9484 77.5109 35.9484Z" fill="black"/>
</svg>
