<svg width="138" height="44" viewBox="0 0 138 44" fill="none" xmlns="http://www.w3.org/2000/svg">
<rect width="138" height="44" rx="7.25" fill="white"/>
<path d="M52.6844 15.1906H49.527L48.9453 16.7592H47.9482L50.5656 9.74602H51.6562L54.2631 16.7592H53.266L52.6844 15.1906ZM52.4144 14.4417L51.1057 10.8795L49.797 14.4417H52.4144Z" fill="black"/>
<path d="M56.8995 15.9091L58.6651 11.2134H59.6726L57.4395 16.7592H56.3386L54.1055 11.2134H55.1234L56.8995 15.9091Z" fill="black"/>
<path d="M60.3534 13.9661C60.3534 13.3993 60.4711 12.9035 60.7065 12.4784C60.942 12.0466 61.2639 11.7127 61.6725 11.4765C62.0879 11.2404 62.5484 11.1223 63.0538 11.1223C63.5524 11.1223 63.9851 11.2269 64.3521 11.4361C64.7191 11.6452 64.9926 11.9083 65.1726 12.2254V11.2134H66.1282V16.7592H65.1726V15.7269C64.9857 16.0508 64.7053 16.3206 64.3314 16.5365C63.9644 16.7457 63.5351 16.8503 63.0435 16.8503C62.538 16.8503 62.081 16.7288 61.6725 16.4859C61.2639 16.2431 60.942 15.9024 60.7065 15.4638C60.4711 15.0253 60.3534 14.526 60.3534 13.9661ZM65.1726 13.9762C65.1726 13.5579 65.0861 13.1936 64.913 12.8832C64.7399 12.5729 64.5045 12.3367 64.2067 12.1748C63.9159 12.0062 63.5939 11.9218 63.2408 11.9218C62.8877 11.9218 62.5657 12.0028 62.2749 12.1647C61.984 12.3266 61.7521 12.5628 61.579 12.8731C61.4059 13.1834 61.3193 13.5478 61.3193 13.9661C61.3193 14.3911 61.4059 14.7622 61.579 15.0793C61.7521 15.3896 61.984 15.6291 62.2749 15.7978C62.5657 15.9597 62.8877 16.0407 63.2408 16.0407C63.5939 16.0407 63.9159 15.9597 64.2067 15.7978C64.5045 15.6291 64.7399 15.3896 64.913 15.0793C65.0861 14.7622 65.1726 14.3945 65.1726 13.9762Z" fill="black"/>
<path d="M68.0058 10.3127C67.8258 10.3127 67.6735 10.252 67.5488 10.1306C67.4242 10.0091 67.3619 9.86071 67.3619 9.6853C67.3619 9.50989 67.4242 9.36146 67.5488 9.24002C67.6735 9.11858 67.8258 9.05786 68.0058 9.05786C68.1789 9.05786 68.3244 9.11858 68.4421 9.24002C68.5667 9.36146 68.629 9.50989 68.629 9.6853C68.629 9.86071 68.5667 10.0091 68.4421 10.1306C68.3244 10.252 68.1789 10.3127 68.0058 10.3127ZM68.4628 11.2134V16.7592H67.5177V11.2134H68.4628Z" fill="black"/>
<path d="M70.8111 9.27038V16.7592H69.866V9.27038H70.8111Z" fill="black"/>
<path d="M72.0688 13.9661C72.0688 13.3993 72.1865 12.9035 72.422 12.4784C72.6574 12.0466 72.9794 11.7127 73.3879 11.4765C73.8033 11.2404 74.2638 11.1223 74.7693 11.1223C75.2678 11.1223 75.7006 11.2269 76.0676 11.4361C76.4345 11.6452 76.7081 11.9083 76.8881 12.2254V11.2134H77.8436V16.7592H76.8881V15.7269C76.7011 16.0508 76.4207 16.3206 76.0468 16.5365C75.6798 16.7457 75.2505 16.8503 74.7589 16.8503C74.2534 16.8503 73.7964 16.7288 73.3879 16.4859C72.9794 16.2431 72.6574 15.9024 72.422 15.4638C72.1865 15.0253 72.0688 14.526 72.0688 13.9661ZM76.8881 13.9762C76.8881 13.5579 76.8015 13.1936 76.6284 12.8832C76.4553 12.5729 76.2199 12.3367 75.9222 12.1748C75.6313 12.0062 75.3094 11.9218 74.9562 11.9218C74.6031 11.9218 74.2811 12.0028 73.9903 12.1647C73.6995 12.3266 73.4675 12.5628 73.2944 12.8731C73.1213 13.1834 73.0348 13.5478 73.0348 13.9661C73.0348 14.3911 73.1213 14.7622 73.2944 15.0793C73.4675 15.3896 73.6995 15.6291 73.9903 15.7978C74.2811 15.9597 74.6031 16.0407 74.9562 16.0407C75.3094 16.0407 75.6313 15.9597 75.9222 15.7978C76.2199 15.6291 76.4553 15.3896 76.6284 15.0793C76.8015 14.7622 76.8881 14.3945 76.8881 13.9762Z" fill="black"/>
<path d="M80.4899 12.2457C80.6837 11.9151 80.9676 11.6452 81.3415 11.4361C81.7154 11.2269 82.1413 11.1223 82.6191 11.1223C83.1314 11.1223 83.5919 11.2404 84.0004 11.4765C84.409 11.7127 84.7309 12.0466 84.9664 12.4784C85.2018 12.9035 85.3195 13.3993 85.3195 13.9661C85.3195 14.526 85.2018 15.0253 84.9664 15.4638C84.7309 15.9024 84.4055 16.2431 83.99 16.4859C83.5815 16.7288 83.1245 16.8503 82.6191 16.8503C82.1274 16.8503 81.6947 16.7457 81.3208 16.5365C80.9538 16.3274 80.6768 16.0609 80.4899 15.7371V16.7592H79.5447V9.27038H80.4899V12.2457ZM84.3536 13.9661C84.3536 13.5478 84.267 13.1834 84.0939 12.8731C83.9208 12.5628 83.6854 12.3266 83.3876 12.1647C83.0968 12.0028 82.7748 11.9218 82.4217 11.9218C82.0755 11.9218 81.7535 12.0062 81.4558 12.1748C81.165 12.3367 80.9296 12.5762 80.7495 12.8933C80.5764 13.2037 80.4899 13.5646 80.4899 13.9762C80.4899 14.3945 80.5764 14.7622 80.7495 15.0793C80.9296 15.3896 81.165 15.6291 81.4558 15.7978C81.7535 15.9597 82.0755 16.0407 82.4217 16.0407C82.7748 16.0407 83.0968 15.9597 83.3876 15.7978C83.6854 15.6291 83.9208 15.3896 84.0939 15.0793C84.267 14.7622 84.3536 14.3911 84.3536 13.9661Z" fill="black"/>
<path d="M87.5087 9.27038V16.7592H86.5636V9.27038H87.5087Z" fill="black"/>
<path d="M94.4166 13.7738C94.4166 13.9492 94.4062 14.1347 94.3854 14.3304H89.8362C89.8709 14.8769 90.0613 15.3053 90.4075 15.6156C90.7606 15.9192 91.1865 16.071 91.685 16.071C92.0935 16.071 92.4328 15.9799 92.7029 15.7978C92.9798 15.6089 93.1737 15.3592 93.2845 15.0489H94.3024C94.15 15.5819 93.8454 16.017 93.3884 16.3544C92.9314 16.685 92.3636 16.8503 91.685 16.8503C91.1449 16.8503 90.6602 16.7322 90.2309 16.4961C89.8085 16.2599 89.4762 15.926 89.2338 15.4942C88.9915 15.0556 88.8703 14.5496 88.8703 13.9762C88.8703 13.4027 88.988 12.9001 89.2234 12.4683C89.4589 12.0365 89.7878 11.7059 90.2102 11.4765C90.6395 11.2404 91.1311 11.1223 91.685 11.1223C92.2251 11.1223 92.7029 11.237 93.1183 11.4664C93.5338 11.6958 93.8523 12.0129 94.0739 12.4177C94.3024 12.8158 94.4166 13.2678 94.4166 13.7738ZM93.4403 13.5815C93.4403 13.2307 93.3607 12.9304 93.2014 12.6808C93.0421 12.4244 92.824 12.2322 92.5471 12.104C92.277 11.969 91.9758 11.9016 91.6435 11.9016C91.1657 11.9016 90.7572 12.05 90.4179 12.3469C90.0855 12.6437 89.8951 13.0553 89.8466 13.5815H93.4403Z" fill="black"/>
<path d="M101.123 16.8503C100.59 16.8503 100.105 16.7322 99.6692 16.4961C99.2399 16.2599 98.9006 15.926 98.6513 15.4942C98.409 15.0556 98.2878 14.5496 98.2878 13.9762C98.2878 13.4095 98.4124 12.9102 98.6617 12.4784C98.9179 12.0399 99.2641 11.7059 99.7003 11.4765C100.137 11.2404 100.625 11.1223 101.165 11.1223C101.705 11.1223 102.193 11.2404 102.629 11.4765C103.065 11.7059 103.408 12.0365 103.658 12.4683C103.914 12.9001 104.042 13.4027 104.042 13.9762C104.042 14.5496 103.91 15.0556 103.647 15.4942C103.391 15.926 103.041 16.2599 102.598 16.4961C102.155 16.7322 101.663 16.8503 101.123 16.8503ZM101.123 16.0407C101.463 16.0407 101.781 15.9631 102.079 15.8079C102.377 15.6527 102.615 15.42 102.795 15.1096C102.982 14.7993 103.076 14.4215 103.076 13.9762C103.076 13.5309 102.986 13.1531 102.806 12.8427C102.626 12.5324 102.39 12.303 102.1 12.1546C101.809 11.9994 101.494 11.9218 101.154 11.9218C100.808 11.9218 100.49 11.9994 100.199 12.1546C99.915 12.303 99.6865 12.5324 99.5134 12.8427C99.3403 13.1531 99.2537 13.5309 99.2537 13.9762C99.2537 14.4282 99.3368 14.8094 99.503 15.1197C99.6761 15.4301 99.9046 15.6628 100.188 15.818C100.472 15.9664 100.784 16.0407 101.123 16.0407Z" fill="black"/>
<path d="M108.265 11.1122C108.958 11.1122 109.519 11.318 109.948 11.7295C110.377 12.1343 110.592 12.7213 110.592 13.4904V16.7592H109.657V13.622C109.657 13.0688 109.515 12.6471 109.231 12.357C108.947 12.0601 108.56 11.9117 108.068 11.9117C107.569 11.9117 107.171 12.0635 106.874 12.3671C106.583 12.6707 106.437 13.1126 106.437 13.6928V16.7592H105.492V11.2134H106.437V12.0028C106.624 11.7194 106.877 11.5002 107.196 11.345C107.521 11.1898 107.878 11.1122 108.265 11.1122Z" fill="black"/>
<path d="M48.146 34.4031V23.1453H49.8082L54.0393 29.0084H53.2082L57.3638 23.1453H59.026V34.4031H57.258V25.2457L57.9229 25.4271L53.6766 31.2297H53.4953L49.3398 25.4271L49.9291 25.2457V34.4031H48.146ZM61.1872 34.4031V26.228H62.8948V34.4031H61.1872ZM61.1872 25.1097V23.1453H62.8948V25.1097H61.1872ZM68.7748 34.5844C67.9588 34.5844 67.2334 34.398 66.5988 34.0253C65.9742 33.6425 65.4755 33.1287 65.1028 32.484C64.7401 31.8392 64.5588 31.1089 64.5588 30.2929C64.5588 29.4869 64.7401 28.7616 65.1028 28.1169C65.4654 27.4721 65.9641 26.9684 66.5988 26.6057C67.2334 26.233 67.9588 26.0466 68.7748 26.0466C69.3288 26.0466 69.8477 26.1474 70.3312 26.3489C70.8148 26.5403 71.2328 26.8072 71.5854 27.1497C71.9481 27.4923 72.2151 27.8902 72.3863 28.3435L70.8903 29.0386C70.7191 28.6155 70.442 28.278 70.0592 28.0262C69.6865 27.7643 69.2583 27.6333 68.7748 27.6333C68.3114 27.6333 67.8933 27.7491 67.5205 27.9809C67.1579 28.2025 66.8708 28.5198 66.6592 28.9329C66.4477 29.3358 66.3419 29.7942 66.3419 30.308C66.3419 30.8217 66.4477 31.2851 66.6592 31.6982C66.8708 32.1012 67.1579 32.4185 67.5205 32.6502C67.8933 32.8819 68.3114 32.9977 68.7748 32.9977C69.2684 32.9977 69.6965 32.8718 70.0592 32.62C70.432 32.358 70.709 32.0105 70.8903 31.5773L72.3863 32.2875C72.2251 32.7207 71.9632 33.1136 71.6005 33.4662C71.248 33.8087 70.8299 34.0807 70.3463 34.2822C69.8628 34.4837 69.3389 34.5844 68.7748 34.5844ZM74.0553 34.4031V26.228H75.6873V27.8751L75.5362 27.6333C75.7175 27.0994 76.0096 26.7166 76.4126 26.4849C76.8156 26.2431 77.2991 26.1222 77.8633 26.1222H78.3619V27.6786H77.6517C77.0876 27.6786 76.6292 27.8549 76.2766 28.2075C75.9341 28.55 75.7628 29.0437 75.7628 29.6884V34.4031H74.0553ZM83.4741 34.5844C82.6883 34.5844 81.968 34.398 81.3132 34.0253C80.6685 33.6526 80.1547 33.1438 79.7719 32.4991C79.3891 31.8543 79.1977 31.124 79.1977 30.308C79.1977 29.4819 79.3891 28.7515 79.7719 28.1169C80.1547 27.4721 80.6685 26.9684 81.3132 26.6057C81.958 26.233 82.6783 26.0466 83.4741 26.0466C84.28 26.0466 85.0003 26.233 85.635 26.6057C86.2797 26.9684 86.7885 27.4721 87.1612 28.1169C87.544 28.7515 87.7354 29.4819 87.7354 30.308C87.7354 31.134 87.544 31.8694 87.1612 32.5142C86.7784 33.1589 86.2646 33.6677 85.6199 34.0404C84.9751 34.4031 84.2599 34.5844 83.4741 34.5844ZM83.4741 32.9977C83.9577 32.9977 84.3858 32.8819 84.7585 32.6502C85.1313 32.4185 85.4234 32.1012 85.635 31.6982C85.8566 31.2851 85.9674 30.8217 85.9674 30.308C85.9674 29.7942 85.8566 29.3358 85.635 28.9329C85.4234 28.5299 85.1313 28.2126 84.7585 27.9809C84.3858 27.7491 83.9577 27.6333 83.4741 27.6333C83.0006 27.6333 82.5725 27.7491 82.1897 27.9809C81.8169 28.2126 81.5197 28.5299 81.2981 28.9329C81.0865 29.3358 80.9808 29.7942 80.9808 30.308C80.9808 30.8217 81.0865 31.2851 81.2981 31.6982C81.5197 32.1012 81.8169 32.4185 82.1897 32.6502C82.5725 32.8819 83.0006 32.9977 83.4741 32.9977ZM92.4247 34.5844C91.5886 34.5844 90.8532 34.3779 90.2185 33.9649C89.5939 33.5518 89.1557 32.9977 88.9038 32.3026L90.2185 31.6831C90.4401 32.1465 90.7424 32.5142 91.1252 32.7862C91.5181 33.0582 91.9512 33.1942 92.4247 33.1942C92.8277 33.1942 93.1551 33.1035 93.4069 32.9222C93.6588 32.7409 93.7847 32.494 93.7847 32.1817C93.7847 31.9803 93.7293 31.8191 93.6185 31.6982C93.5077 31.5672 93.3666 31.4614 93.1954 31.3809C93.0342 31.3003 92.868 31.2398 92.6967 31.1995L91.4123 30.8369C90.7071 30.6354 90.1782 30.3331 89.8256 29.9302C89.4831 29.5171 89.3118 29.0386 89.3118 28.4946C89.3118 28.001 89.4378 27.5729 89.6896 27.2102C89.9415 26.8374 90.289 26.5503 90.7323 26.3489C91.1755 26.1474 91.6742 26.0466 92.2283 26.0466C92.9738 26.0466 93.6386 26.233 94.2229 26.6057C94.8072 26.9684 95.2203 27.4771 95.4621 28.132L94.1474 28.7515C93.9862 28.3586 93.7293 28.0463 93.3767 27.8146C93.0342 27.5829 92.6464 27.4671 92.2132 27.4671C91.8404 27.4671 91.5432 27.5577 91.3216 27.7391C91.1 27.9103 90.9892 28.137 90.9892 28.4191C90.9892 28.6105 91.0395 28.7717 91.1403 28.9026C91.241 29.0235 91.372 29.1243 91.5332 29.2049C91.6944 29.2754 91.8606 29.3358 92.0318 29.3862L93.3616 29.7791C94.0366 29.9705 94.5554 30.2727 94.9181 30.6857C95.2807 31.0887 95.4621 31.5723 95.4621 32.1364C95.4621 32.62 95.3311 33.0481 95.0692 33.4209C94.8173 33.7835 94.4647 34.0706 94.0114 34.2822C93.5581 34.4837 93.0292 34.5844 92.4247 34.5844ZM101.079 34.5844C100.293 34.5844 99.5731 34.398 98.9183 34.0253C98.2735 33.6526 97.7597 33.1438 97.3769 32.4991C96.9941 31.8543 96.8027 31.124 96.8027 30.308C96.8027 29.4819 96.9941 28.7515 97.3769 28.1169C97.7597 27.4721 98.2735 26.9684 98.9183 26.6057C99.563 26.233 100.283 26.0466 101.079 26.0466C101.885 26.0466 102.605 26.233 103.24 26.6057C103.885 26.9684 104.394 27.4721 104.766 28.1169C105.149 28.7515 105.34 29.4819 105.34 30.308C105.34 31.134 105.149 31.8694 104.766 32.5142C104.383 33.1589 103.87 33.6677 103.225 34.0404C102.58 34.4031 101.865 34.5844 101.079 34.5844ZM101.079 32.9977C101.563 32.9977 101.991 32.8819 102.364 32.6502C102.736 32.4185 103.028 32.1012 103.24 31.6982C103.462 31.2851 103.572 30.8217 103.572 30.308C103.572 29.7942 103.462 29.3358 103.24 28.9329C103.028 28.5299 102.736 28.2126 102.364 27.9809C101.991 27.7491 101.563 27.6333 101.079 27.6333C100.606 27.6333 100.178 27.7491 99.7947 27.9809C99.422 28.2126 99.1248 28.5299 98.9031 28.9329C98.6916 29.3358 98.5858 29.7942 98.5858 30.308C98.5858 30.8217 98.6916 31.2851 98.9031 31.6982C99.1248 32.1012 99.422 32.4185 99.7947 32.6502C100.178 32.8819 100.606 32.9977 101.079 32.9977ZM107.708 34.4031V27.7693H106.197V26.228H107.708V25.8049C107.708 25.1903 107.834 24.6766 108.086 24.2635C108.338 23.8404 108.685 23.518 109.128 23.2964C109.582 23.0748 110.101 22.964 110.685 22.964C110.796 22.964 110.922 22.974 111.063 22.9942C111.204 23.0043 111.32 23.0194 111.41 23.0395V24.5204C111.33 24.5003 111.239 24.4902 111.138 24.4902C111.037 24.4801 110.957 24.4751 110.896 24.4751C110.443 24.4751 110.08 24.5809 109.808 24.7924C109.536 24.9939 109.4 25.3314 109.4 25.8049V26.228H111.274V27.7693H109.4V34.4031H107.708ZM116.697 34.4937C115.841 34.4937 115.176 34.252 114.703 33.7684C114.229 33.2849 113.992 32.6049 113.992 31.7284V27.7693H112.557V26.228H112.783C113.166 26.228 113.463 26.1171 113.675 25.8955C113.887 25.6739 113.992 25.3717 113.992 24.9889V24.3542H115.7V26.228H117.559V27.7693H115.7V31.6529C115.7 31.9349 115.745 32.1767 115.836 32.3782C115.927 32.5696 116.073 32.7207 116.274 32.8315C116.476 32.9323 116.737 32.9826 117.06 32.9826C117.14 32.9826 117.231 32.9776 117.332 32.9675C117.433 32.9574 117.528 32.9474 117.619 32.9373V34.4031C117.478 34.4232 117.322 34.4434 117.151 34.4635C116.979 34.4837 116.828 34.4937 116.697 34.4937Z" fill="black"/>
<g clip-path="url(#clip0_481_260)">
<path d="M11 7.44604H24.3053V20.7513H11V7.44604Z" fill="black"/>
<path d="M25.6943 7.44604H38.9996V20.7513H25.6943V7.44604Z" fill="black"/>
<path d="M11 21.7512H24.3053V35.0565H11V21.7512Z" fill="black"/>
<path d="M25.6953 21.7512H39.0006V35.0565H25.6953V21.7512Z" fill="black"/>
</g>
<defs>
<clipPath id="clip0_481_260">
<rect width="28" height="28" fill="white" transform="translate(11 7.44604)"/>
</clipPath>
</defs>
</svg>
